<svg width="380" height="380" viewBox="0 0 380 380" fill="none" xmlns="http://www.w3.org/2000/svg">
<path fill-rule="evenodd" clip-rule="evenodd" d="M178 80C205.614 80 228 57.6142 228 30L298 30C314.569 30 328 43.4315 328 60V130.158C353.744 132.195 374 153.732 374 180C374 206.268 353.744 227.805 328 229.842V300C328 316.569 314.569 330 298 330H228C228 357.614 205.614 380 178 380C150.386 380 128 357.614 128 330H58C41.4315 330 28 316.569 28 300L28 230C55.6142 230 78 207.614 78 180C78 152.386 55.6142 130 28 130L28 60C28 43.4315 41.4315 30 58 30L128 30C128 57.6142 150.386 80 178 80Z" fill="url(#paint0_linear_2_2)"/>
<path d="M261.115 0.193499L131.791 25.4975C129.666 25.9133 128.092 27.7121 127.964 29.8707L120.009 164.034C119.821 167.194 122.728 169.647 125.816 168.936L161.822 160.638C165.191 159.862 168.235 162.825 167.543 166.208L156.845 218.515C156.125 222.035 159.435 225.046 162.878 224.001L185.117 217.255C188.565 216.209 191.877 219.228 191.148 222.751L174.148 304.914C173.084 310.053 179.93 312.856 182.785 308.449L184.692 305.507L290.073 95.5051C291.838 91.9889 288.795 87.9795 284.927 88.7248L247.865 95.8674C244.382 96.5379 241.419 93.2991 242.402 89.8965L266.592 6.16127C267.576 2.75297 264.602 -0.488606 261.115 0.193499Z" fill="url(#paint1_linear_2_2)"/>
<defs>
<linearGradient id="paint0_linear_2_2" x1="13.5" y1="121" x2="311.5" y2="380" gradientUnits="userSpaceOnUse">
<stop stop-color="#41D1FF"/>
<stop offset="1" stop-color="#BD34FE"/>
</linearGradient>
<linearGradient id="paint1_linear_2_2" x1="167.74" y1="7.06347" x2="206.973" y2="276.586" gradientUnits="userSpaceOnUse">
<stop stop-color="#FFEA83"/>
<stop offset="0.0833333" stop-color="#FFDD35"/>
<stop offset="1" stop-color="#FFA800"/>
</linearGradient>
</defs>
</svg>
